# xmcd
#
# Track frame offsets:
#	150
#	32293
#	72045
#	106202
#	137225
#	167217
#	194427
#	226570
#	260901
#	298508
# Disc length: 4419 seconds
# Revision: 1
# Processed by: cddbd v1.5.1PL0 Copyright (c) Steve Scherf et al.
#
# Submitted via: libkcddb 0.20
#
DISCID=8811410a
DTITLE=Forest CD2 - MUTEKS
DYEAR=1900
DGENRE=
TTITLE0=Alien Craft
TTITLE1=The prayer
TTITLE2=First Flight
TTITLE3=Silent scream
TTITLE4=Spun Dry
TTITLE5=World Destruction
TTITLE6=Dynamix remix
TTITLE7=Party Pooper
TTITLE8=Rising Force
TTITLE9=_my_blue_goa-gap
EXTD=
EXTT0=
EXTT1=
EXTT2=
EXTT3=
EXTT4=
EXTT5=
EXTT6=
EXTT7=
EXTT8=
EXTT9=
PLAYORDER=
